<svg xmlns="http://www.w3.org/2000/svg"
     width="172pt" height="201pt" viewBox="0 0 1720 2010"
     preserveAspectRatio="xMidYMid meet">
  <path d="M948 276 c49 20 100 70 123 119 17 36 19 68 19 315 0 306 -3 322 -70 387 -47 46 -94 65 -160 65 -66 0 -113 -19 -160 -65 -67 -65 -70 -81 -70 -385 0 -301 3 -317 63 -381 64 -67 171 -90 255 -55z m-474 711 c14 122 95 230 216 287 60 29 73 31 170 31 97 0 110 -2 170 -31 121 -57 202 -165 216 -287 l7 -57 68 0 69 0 0 38 c0 21 -7 63 -16 93 -52 177 -205 324 -385 370 l-49 13 0 123 0 123 -80 0 -80 0 0 -123 0 -123 -49 -13 c-134 -34 -278 -144 -339 -259 -34 -64 -62 -158 -62 -209 l0 -33 69 0 68 0 7 57z"
        fill="white"/>
</svg>

